<svg width="40" height="40" viewBox="0 0 40 40" fill="none" xmlns="http://www.w3.org/2000/svg">
<mask id="mask0_1701_704" style="mask-type:alpha" maskUnits="userSpaceOnUse" x="0" y="0" width="40" height="40">
<rect width="40" height="40" fill="#D9D9D9"/>
</mask>
<g mask="url(#mask0_1701_704)">
<path d="M5.32053 30.8333C4.47864 30.8333 3.76604 30.5416 3.18274 29.9583C2.59941 29.375 2.30774 28.6624 2.30774 27.8205V12.1796C2.30774 11.3377 2.59941 10.6251 3.18274 10.0417C3.76607 9.45838 4.47867 9.16672 5.32053 9.16672H20.9615C21.8034 9.16672 22.5159 9.45838 23.0993 10.0417C23.6826 10.6251 23.9743 11.3377 23.9743 12.1796V27.8205C23.9743 28.6624 23.6826 29.375 23.0993 29.9583C22.5159 30.5416 21.8034 30.8333 20.9615 30.8333H5.32053ZM5.32053 28.3333H20.9615C21.0897 28.3333 21.2072 28.2799 21.3141 28.1731C21.4209 28.0662 21.4743 27.9487 21.4743 27.8205V12.1796C21.4743 12.0513 21.4209 11.9338 21.3141 11.8269C21.2072 11.7201 21.0897 11.6667 20.9615 11.6667H5.32053C5.19231 11.6667 5.07478 11.7201 4.96795 11.8269C4.86109 11.9338 4.80766 12.0513 4.80766 12.1796V27.8205C4.80766 27.9487 4.86109 28.0662 4.96795 28.1731C5.07478 28.2799 5.19231 28.3333 5.32053 28.3333ZM12.3077 23.6539L10.5769 21.3654C10.4209 21.1646 10.22 21.0684 9.97432 21.077C9.7286 21.0855 9.52775 21.1902 9.37178 21.3911L7.72116 23.6026C7.53099 23.859 7.5155 24.1239 7.6747 24.3974C7.83386 24.6709 8.06409 24.8077 8.36536 24.8077H17.9166C18.2179 24.8077 18.4412 24.6709 18.5865 24.3974C18.7318 24.1239 18.7094 23.859 18.5192 23.6026L16.0769 20.2821C15.9209 20.0812 15.72 19.9808 15.4743 19.9808C15.2286 19.9808 15.0278 20.0812 14.8718 20.2821L12.3077 23.6539ZM29.5833 30.8333C29.2286 30.8333 28.9316 30.7136 28.6923 30.4743C28.453 30.235 28.3333 29.938 28.3333 29.5833V10.4167C28.3333 10.062 28.453 9.76502 28.6923 9.52572C28.9316 9.28639 29.2286 9.16672 29.5833 9.16672C29.938 9.16672 30.235 9.28639 30.4743 9.52572C30.7136 9.76502 30.8333 10.062 30.8333 10.4167V29.5833C30.8333 29.938 30.7136 30.235 30.4743 30.4743C30.235 30.7136 29.938 30.8333 29.5833 30.8333ZM36.4423 30.8333C36.0876 30.8333 35.7906 30.7136 35.5513 30.4743C35.312 30.235 35.1923 29.938 35.1923 29.5833V10.4167C35.1923 10.062 35.312 9.76502 35.5513 9.52572C35.7906 9.28639 36.0876 9.16672 36.4423 9.16672C36.797 9.16672 37.094 9.28639 37.3333 9.52572C37.5726 9.76502 37.6922 10.062 37.6922 10.4167V29.5833C37.6922 29.938 37.5726 30.235 37.3333 30.4743C37.094 30.7136 36.797 30.8333 36.4423 30.8333Z" fill="#7128E8"/>
</g>
</svg>
