<svg width="17" height="16" viewBox="0 0 17 16" fill="none" xmlns="http://www.w3.org/2000/svg">
<mask id="mask0_1716_1468" style="mask-type:alpha" maskUnits="userSpaceOnUse" x="0" y="0" width="17" height="16">
<rect x="0.125" width="16" height="16" fill="#D9D9D9"/>
</mask>
<g mask="url(#mask0_1716_1468)">
<path d="M4.45832 13C3.53696 13 2.75107 12.6799 2.10063 12.0397C1.45021 11.3996 1.125 10.6188 1.125 9.69742C1.125 8.88204 1.38611 8.15683 1.90833 7.52178C2.43056 6.88675 3.09679 6.51112 3.90705 6.39488C4.12073 5.39829 4.62179 4.58333 5.41025 3.95C6.19871 3.31667 7.10362 3 8.12498 3C9.33096 3 10.3547 3.42073 11.1961 4.26218C12.0376 5.10363 12.4583 6.12734 12.4583 7.33332V7.66667H12.6634C13.366 7.72137 13.9519 8.00384 14.4211 8.5141C14.8904 9.02436 15.125 9.63076 15.125 10.3333C15.125 11.0769 14.8664 11.7072 14.3493 12.2243C13.8322 12.7414 13.2019 13 12.4583 13H4.45832ZM4.45832 12H12.4583C12.925 12 13.3194 11.8389 13.6417 11.5167C13.9639 11.1944 14.125 10.8 14.125 10.3333C14.125 9.86665 13.9639 9.47221 13.6417 9.14998C13.3194 8.82776 12.925 8.66665 12.4583 8.66665H11.4583V7.33332C11.4583 6.41109 11.1333 5.62498 10.4833 4.97498C9.83332 4.32498 9.04721 3.99998 8.12498 3.99998C7.20276 3.99998 6.41665 4.32498 5.76665 4.97498C5.11665 5.62498 4.79165 6.41109 4.79165 7.33332H4.45832C3.81387 7.33332 3.26387 7.5611 2.80832 8.01665C2.35276 8.47221 2.12498 9.02221 2.12498 9.66665C2.12498 10.3111 2.35276 10.8611 2.80832 11.3167C3.26387 11.7722 3.81387 12 4.45832 12Z" fill="#000000"/>
</g>
</svg>
