<svg width="17" height="16" viewBox="0 0 17 16" fill="none" xmlns="http://www.w3.org/2000/svg">
<mask id="mask0_1716_1453" style="mask-type:alpha" maskUnits="userSpaceOnUse" x="0" y="0" width="17" height="16">
<rect x="0.875" width="16" height="16" fill="#D9D9D9"/>
</mask>
<g mask="url(#mask0_1716_1453)">
<path d="M11.1457 7.20506C11.3883 7.20506 11.594 7.12015 11.7628 6.95034C11.9316 6.78054 12.016 6.57435 12.016 6.33176C12.016 6.08918 11.9311 5.88349 11.7613 5.71469C11.5915 5.54589 11.3853 5.46149 11.1427 5.46149C10.9001 5.46149 10.6945 5.5464 10.5257 5.71621C10.3568 5.88601 10.2724 6.0922 10.2724 6.33479C10.2724 6.57737 10.3573 6.78306 10.5272 6.95186C10.697 7.12066 10.9032 7.20506 11.1457 7.20506ZM6.60729 7.20506C6.84986 7.20506 7.05555 7.12015 7.22435 6.95034C7.39317 6.78054 7.47757 6.57435 7.47757 6.33176C7.47757 6.08918 7.39266 5.88349 7.22285 5.71469C7.05304 5.54589 6.84685 5.46149 6.60427 5.46149C6.36169 5.46149 6.156 5.5464 5.98719 5.71621C5.81839 5.88601 5.73399 6.0922 5.73399 6.33479C5.73399 6.57737 5.81889 6.78306 5.9887 6.95186C6.15851 7.12066 6.36471 7.20506 6.60729 7.20506ZM8.87612 14.3333C8.00016 14.3333 7.17681 14.167 6.40605 13.8346C5.63529 13.5021 4.96483 13.051 4.39469 12.4811C3.82453 11.9112 3.37316 11.241 3.04057 10.4706C2.70798 9.7002 2.54169 8.87702 2.54169 8.00106C2.54169 7.1251 2.70791 6.30175 3.04035 5.53099C3.3728 4.76023 3.82396 4.08977 4.39385 3.51963C4.96375 2.94947 5.63391 2.4981 6.40434 2.16551C7.17475 1.83292 7.99793 1.66663 8.87389 1.66663C9.74984 1.66663 10.5732 1.83285 11.344 2.16529C12.1147 2.49774 12.7852 2.9489 13.3553 3.51879C13.9255 4.08869 14.3768 4.75885 14.7094 5.52928C15.042 6.29969 15.2083 7.12287 15.2083 7.99883C15.2083 8.87478 15.0421 9.69814 14.7097 10.4689C14.3772 11.2397 13.926 11.9101 13.3562 12.4803C12.7863 13.0504 12.1161 13.5018 11.3457 13.8344C10.5753 14.167 9.75208 14.3333 8.87612 14.3333ZM8.875 13.3333C10.3639 13.3333 11.625 12.8166 12.6583 11.7833C13.6917 10.7499 14.2083 9.48883 14.2083 7.99994C14.2083 6.51105 13.6917 5.24994 12.6583 4.21661C11.625 3.18328 10.3639 2.66661 8.875 2.66661C7.38611 2.66661 6.125 3.18328 5.09167 4.21661C4.05834 5.24994 3.54167 6.51105 3.54167 7.99994C3.54167 9.48883 4.05834 10.7499 5.09167 11.7833C6.125 12.8166 7.38611 13.3333 8.875 13.3333ZM8.875 11.4615C9.47337 11.4615 10.0253 11.3198 10.5308 11.0365C11.0363 10.7531 11.4469 10.3687 11.7624 9.88328C11.8255 9.76191 11.8235 9.6399 11.7564 9.51724C11.6893 9.3946 11.5844 9.33328 11.4417 9.33328H6.30835C6.16562 9.33328 6.0607 9.3946 5.9936 9.51724C5.92651 9.6399 5.92452 9.76191 5.98762 9.88328C6.30315 10.3687 6.71625 10.7531 7.22692 11.0365C7.7376 11.3198 8.28696 11.4615 8.875 11.4615Z" fill="black"/>
</g>
</svg>
