<svg width="28" height="28" viewBox="0 0 28 28" fill="none" xmlns="http://www.w3.org/2000/svg">
<mask id="mask0_1734_149" style="mask-type:alpha" maskUnits="userSpaceOnUse" x="0" y="0" width="28" height="28">
<rect width="28" height="28" fill="#D9D9D9"/>
</mask>
<g mask="url(#mask0_1734_149)">
<path d="M12.7077 25.0834C12.3098 25.0834 11.9662 24.9514 11.6768 24.6874C11.3874 24.4234 11.2112 24.0984 11.1484 23.7126L10.8635 21.5295C10.5509 21.4248 10.2304 21.2782 9.90209 21.0898C9.57378 20.9013 9.28023 20.6994 9.02147 20.484L6.99998 21.3433C6.63353 21.5048 6.26522 21.5205 5.89503 21.3904C5.52485 21.2603 5.2373 21.024 5.0324 20.6814L3.71765 18.4019C3.51275 18.0594 3.45367 17.6971 3.54041 17.315C3.62717 16.9328 3.82609 16.6176 4.13719 16.3693L5.88497 15.0568C5.85804 14.8833 5.83896 14.709 5.82774 14.534C5.81653 14.359 5.81091 14.1848 5.81091 14.0113C5.81091 13.8452 5.81653 13.6766 5.82774 13.5053C5.83896 13.3341 5.85804 13.1467 5.88497 12.9433L4.13719 11.6308C3.82609 11.3825 3.62903 11.0654 3.54601 10.6795C3.463 10.2937 3.52396 9.92945 3.72888 9.58693L5.0324 7.3411C5.2373 7.00607 5.52485 6.77162 5.89503 6.63774C6.26522 6.50389 6.63353 6.51772 6.99998 6.67925L9.01024 7.52736C9.29144 7.30448 9.59171 7.10069 9.91105 6.91597C10.2304 6.73122 10.5441 6.58277 10.8523 6.47059L11.1484 4.28755C11.2112 3.90168 11.3874 3.57674 11.6768 3.31274C11.9662 3.04875 12.3098 2.91675 12.7077 2.91675H15.2923C15.6901 2.91675 16.0338 3.04875 16.3232 3.31274C16.6126 3.57674 16.7887 3.90168 16.8515 4.28755L17.1365 6.48182C17.4865 6.60895 17.8032 6.7574 18.0867 6.92717C18.3701 7.09693 18.6562 7.297 18.9448 7.52736L21.0112 6.67925C21.3777 6.51772 21.746 6.50389 22.1162 6.63774C22.4863 6.77162 22.7739 7.00607 22.9788 7.3411L24.2823 9.59816C24.4872 9.94068 24.5463 10.303 24.4596 10.6851C24.3728 11.0673 24.1739 11.3825 23.8628 11.6308L22.0701 12.9769C22.112 13.1654 22.1348 13.3415 22.1386 13.5053C22.1423 13.6691 22.1442 13.834 22.1442 14.0001C22.1442 14.1586 22.1404 14.3198 22.133 14.4835C22.1255 14.6473 22.0985 14.8347 22.0522 15.0456L23.8112 16.3693C24.1223 16.6176 24.3231 16.9328 24.4136 17.315C24.5041 17.6971 24.4468 18.0594 24.2419 18.4019L22.9205 20.6702C22.7156 21.0127 22.4261 21.2491 22.0522 21.3792C21.6783 21.5093 21.3081 21.4936 20.9416 21.3321L18.9448 20.4727C18.6562 20.7031 18.3615 20.9069 18.0609 21.0841C17.7602 21.2614 17.4521 21.4061 17.1365 21.5183L16.8515 23.7126C16.7887 24.0984 16.6126 24.4234 16.3232 24.6874C16.0338 24.9514 15.6901 25.0834 15.2923 25.0834H12.7077ZM12.8333 23.3334H15.1263L15.5458 20.2081C16.1411 20.0525 16.6852 19.8315 17.178 19.5451C17.6708 19.2587 18.1461 18.8903 18.6038 18.4401L21.5026 19.6584L22.6513 17.6751L20.1205 15.768C20.2177 15.4659 20.2839 15.1697 20.3191 14.8795C20.3542 14.5894 20.3718 14.2962 20.3718 14.0001C20.3718 13.6964 20.3542 13.4033 20.3191 13.1206C20.2839 12.8379 20.2177 12.5492 20.1205 12.2545L22.6737 10.3251L21.525 8.34172L18.5926 9.57795C18.2022 9.16063 17.7344 8.79194 17.1892 8.47186C16.644 8.15177 16.0925 7.92516 15.5346 7.79204L15.1666 4.66672H12.8513L12.4654 7.78082C11.8701 7.92142 11.3204 8.1368 10.8163 8.42697C10.3123 8.71714 9.8314 9.09108 9.37371 9.54878L6.47498 8.34172L5.32625 10.3251L7.84582 12.2029C7.74859 12.4796 7.68054 12.7676 7.64165 13.0667C7.60276 13.3659 7.58332 13.6807 7.58332 14.0113C7.58332 14.3149 7.60276 14.6126 7.64165 14.9042C7.68054 15.1959 7.74485 15.4838 7.83459 15.768L5.32625 17.6751L6.47498 19.6584L9.36248 18.4334C9.80521 18.8881 10.2786 19.2605 10.7827 19.5507C11.2867 19.8409 11.8439 20.0637 12.4541 20.2193L12.8333 23.3334ZM14.0134 17.5C14.9842 17.5 15.8102 17.1594 16.4915 16.4781C17.1728 15.7968 17.5134 14.9708 17.5134 14.0001C17.5134 13.0293 17.1728 12.2033 16.4915 11.522C15.8102 10.8407 14.9842 10.5001 14.0134 10.5001C13.0308 10.5001 12.2018 10.8407 11.5264 11.522C10.8511 12.2033 10.5135 13.0293 10.5135 14.0001C10.5135 14.9708 10.8511 15.7968 11.5264 16.4781C12.2018 17.1594 13.0308 17.5 14.0134 17.5Z" fill="#9494A8"/>
</g>
</svg>
