<svg width="40" height="40" viewBox="0 0 40 40" fill="none" xmlns="http://www.w3.org/2000/svg">
<mask id="mask0_1701_720" style="mask-type:alpha" maskUnits="userSpaceOnUse" x="0" y="0" width="40" height="40">
<rect width="40" height="40" fill="#D9D9D9"/>
</mask>
<g mask="url(#mask0_1701_720)">
<path d="M12.2756 26.1538H21.5705C22 26.1538 22.3584 26.0101 22.6458 25.7227C22.9332 25.4353 23.0769 25.0769 23.0769 24.6474V21.2372L27.3814 24.6891C27.7553 24.9904 28.157 25.0379 28.5865 24.8317C29.016 24.6255 29.2307 24.2852 29.2307 23.8109V16.1891C29.2307 15.7148 29.016 15.3745 28.5865 15.1683C28.157 14.9621 27.7553 15.0096 27.3814 15.3109L23.0769 18.7628V15.3526C23.0769 14.9231 22.9332 14.5647 22.6458 14.2773C22.3584 13.9899 22 13.8462 21.5705 13.8462H12.2756C11.8462 13.8462 11.4877 13.9899 11.2004 14.2773C10.913 14.5647 10.7693 14.9231 10.7693 15.3526V24.6474C10.7693 25.0769 10.913 25.4353 11.2004 25.7227C11.4877 26.0101 11.8462 26.1538 12.2756 26.1538ZM7.17952 32.4999C6.33763 32.4999 5.62502 32.2083 5.04169 31.625C4.45835 31.0416 4.16669 30.329 4.16669 29.4871V10.5129C4.16669 9.67098 4.45835 8.95836 5.04169 8.37503C5.62502 7.7917 6.33763 7.50003 7.17952 7.50003H32.8204C33.6623 7.50003 34.3749 7.7917 34.9583 8.37503C35.5416 8.95836 35.8333 9.67098 35.8333 10.5129V29.4871C35.8333 30.329 35.5416 31.0416 34.9583 31.625C34.3749 32.2083 33.6623 32.4999 32.8204 32.4999H7.17952ZM7.17952 30H32.8204C32.97 30 33.0929 29.9519 33.1891 29.8557C33.2852 29.7596 33.3333 29.6367 33.3333 29.4871V10.5129C33.3333 10.3633 33.2852 10.2404 33.1891 10.1442C33.0929 10.0481 32.97 9.99999 32.8204 9.99999H7.17952C7.02994 9.99999 6.90706 10.0481 6.8109 10.1442C6.71473 10.2404 6.66665 10.3633 6.66665 10.5129V29.4871C6.66665 29.6367 6.71473 29.7596 6.8109 29.8557C6.90706 29.9519 7.02994 30 7.17952 30Z" fill="#7128E8"/>
</g>
</svg>
